<svg xmlns="http://www.w3.org/2000/svg" width="400" height="400" viewBox="0 0 400 400" role="img" aria-label="Network Nexus logo">
  <defs>
    <linearGradient id="ribbonFade" x1="0" y1="200" x2="400" y2="200" gradientUnits="userSpaceOnUse">
      <stop offset="0%" stop-color="#000000"/>
      <stop offset="10%" stop-color="#0b0b0b"/>
      <stop offset="20%" stop-color="#3d3d3d"/>
      <stop offset="33%" stop-color="#d2d2d2"/>
      <stop offset="42%" stop-color="#ffffff"/>
      <stop offset="58%" stop-color="#ffffff"/>
      <stop offset="67%" stop-color="#d2d2d2"/>
      <stop offset="80%" stop-color="#3d3d3d"/>
      <stop offset="90%" stop-color="#0b0b0b"/>
      <stop offset="100%" stop-color="#000000"/>
    </linearGradient>
  </defs>
  <circle cx="200" cy="200" r="200" fill="#000000"/>
  <path d="M106.380 116.467 C 61.558 120.719,28.642 156.067,28.596 200.000 C 28.532 261.485,90.987 302.384,145.701 276.686 C 158.857 270.507,161.879 267.793,197.423 230.223 C 198.710 228.864,199.868 227.751,199.998 227.751 C 200.128 227.751,205.828 233.529,212.664 240.590 C 239.679 268.492,241.437 270.011,253.748 276.079 C 315.403 306.470,383.236 250.414,368.584 181.180 C 357.526 128.926,296.243 100.302,249.920 125.755 C 239.419 131.525,234.614 135.916,208.633 163.481 C 204.170 168.216,200.364 172.089,200.175 172.089 C 199.986 172.089,196.040 167.998,191.408 162.998 C 180.795 151.545,164.325 135.050,160.766 132.311 C 145.227 120.353,125.622 114.642,106.380 116.467 " fill="url(#ribbonFade)"/>
  <path d="M92.344 141.817 C 55.120 147.068,30.995 185.101,43.526 218.779 C 57.271 255.721,97.079 270.454,126.635 249.537 C 129.653 247.401,140.093 237.159,167.121 209.819 L 176.492 200.340 168.495 192.116 C 151.084 174.212,129.775 153.319,126.794 151.230 C 117.187 144.496,102.262 140.418,92.344 141.817 " fill="#000000"/>
  <path d="M297.608 141.830 C 287.630 143.072,278.074 147.210,269.966 153.799 C 267.794 155.564,224.192 199.355,223.983 199.981 C 223.895 200.245,247.040 223.815,264.415 241.155 C 274.640 251.360,282.347 255.844,293.725 258.208 C 331.493 266.055,367.311 225.671,357.376 186.443 C 350.387 158.845,323.305 138.631,297.608 141.830 " fill="#000000"/>
  <path d="M96.541 151.068 C 77.227 154.557,60.781 174.484,58.668 196.958 C 56.192 223.294,77.017 249.498,101.196 250.471 C 104.282 250.595,104.269 250.493,101.029 249.158 C 78.692 239.954,65.897 217.379,69.393 193.342 C 72.185 174.140,83.758 159.695,103.349 150.957 C 104.555 150.419,99.692 150.498,96.541 151.068 " fill="#ffffff"/>
  <path d="M296.651 150.958 C 297.089 151.153,298.341 151.707,299.431 152.187 C 340.512 170.281,341.350 229.166,300.797 248.098 C 298.955 248.958,297.089 249.831,296.651 250.037 C 295.119 250.758,302.263 250.186,305.668 249.315 C 331.771 242.640,347.323 211.798,338.416 184.370 C 332.200 165.229,314.633 150.435,298.290 150.580 C 296.222 150.598,295.974 150.655,296.651 150.958 " fill="#ffffff"/>
</svg>
